HIERARCHY
ROOT hip
{
  OFFSET 0 0 0
  CHANNELS 6 Xposition Yposition Zposition Zrotation Yrotation Xrotation
  JOINT abdomen
  {
    OFFSET 0 20.6881 -0.73152
    CHANNELS 3 Zrotation Xrotation Yrotation
    JOINT chest
    {
      OFFSET 0 11.7043 -0.48768
      CHANNELS 3 Zrotation Xrotation Yrotation
      JOINT neck
      {
        OFFSET 0 22.1894 -2.19456
        CHANNELS 3 Zrotation Xrotation Yrotation
        JOINT head
        {
          OFFSET -0.24384 7.07133 1.2192
          CHANNELS 3 Zrotation Xrotation Yrotation
          JOINT leftEye
          {
            OFFSET 4.14528 8.04674 8.04672
            CHANNELS 3 Zrotation Xrotation Yrotation
            End Site
            {
              OFFSET 1 0 0
            }
          }
          JOINT rightEye
          {
            OFFSET -3.6576 8.04674 8.04672
            CHANNELS 3 Zrotation Xrotation Yrotation
            End Site
            {
              OFFSET 1 0 0
            }
          }
        }
      }
      JOINT rCollar
      {
        OFFSET -2.68224 19.2634 -4.8768
        CHANNELS 3 Zrotation Xrotation Yrotation
        JOINT rShldr
        {
          OFFSET -8.77824 -1.95073 1.46304
          CHANNELS 3 Zrotation Xrotation Yrotation
          JOINT rForeArm
          {
            OFFSET -28.1742 -1.7115 0.48768
            CHANNELS 3 Zrotation Xrotation Yrotation
            JOINT rHand
            {
              OFFSET -22.5879 0.773209 7.07136
              CHANNELS 3 Zrotation Xrotation Yrotation
              JOINT rThumb1
              {
                OFFSET -1.2192 -0.487915 3.41376
                CHANNELS 3 Zrotation Xrotation Yrotation
                JOINT rThumb2
                {
                  OFFSET -3.37035 -0.52449 3.41376
                  CHANNELS 3 Zrotation Xrotation Yrotation
                  End Site
                  {
                    OFFSET -1.78271 -1.18214 1.43049
                  }
                }
              }
              JOINT rIndex1
              {
                OFFSET -7.75947 0.938293 5.60832
                CHANNELS 3 Zrotation Xrotation Yrotation
                JOINT rIndex2
                {
                  OFFSET -2.54057 -0.884171 1.56538
                  CHANNELS 3 Zrotation Xrotation Yrotation
                  End Site
                  {
                    OFFSET -1.62519 -0.234802 1.16502
                  }
                }
              }
              JOINT rMid1
              {
                OFFSET -8.24714 1.18213 3.41376
                CHANNELS 3 Zrotation Xrotation Yrotation
                JOINT rMid2
                {
                  OFFSET -3.10165 -0.590103 1.0647
                  CHANNELS 3 Zrotation Xrotation Yrotation
                  End Site
                  {
                    OFFSET -2.48547 -0.328903 0.83742
                  }
                }
              }
              JOINT rRing1
              {
                OFFSET -8.82822 0.546677 1.51678
                CHANNELS 3 Zrotation Xrotation Yrotation
                JOINT rRing2
                {
                  OFFSET -2.60934 -0.819778 -0.0198488
                  CHANNELS 3 Zrotation Xrotation Yrotation
                  End Site
                  {
                    OFFSET -2.33842 -0.294052 0.168128
                  }
                }
              }
              JOINT rPinky1
              {
                OFFSET -8.27202 -0.0477905 -0.4584
                CHANNELS 3 Zrotation Xrotation Yrotation
                JOINT rPinky2
                {
                  OFFSET -1.82734 -0.647385 -0.700984
                  CHANNELS 3 Zrotation Xrotation Yrotation
                  End Site
                  {
                    OFFSET -1.69225 -0.51767 -0.607171
                  }
                }
              }
            }
          }
        }
      }
      JOINT lCollar
      {
        OFFSET 2.68224 19.2634 -4.8768
        CHANNELS 3 Zrotation Xrotation Yrotation
        JOINT lShldr
        {
          OFFSET 8.77824 -1.95073 1.46304
          CHANNELS 3 Zrotation Xrotation Yrotation
          JOINT lForeArm
          {
            OFFSET 28.1742 -1.7115 0.48768
            CHANNELS 3 Zrotation Xrotation Yrotation
            JOINT lHand
            {
              OFFSET 22.5879 0.773209 7.07136
              CHANNELS 3 Zrotation Xrotation Yrotation
              JOINT lThumb1
              {
                OFFSET 1.2192 -0.487915 3.41376
                CHANNELS 3 Zrotation Xrotation Yrotation
                JOINT lThumb2
                {
                  OFFSET 3.37035 -0.52449 3.41376
                  CHANNELS 3 Zrotation Xrotation Yrotation
                  End Site
                  {
                    OFFSET 1.78271 -1.18214 1.43049
                  }
                }
              }
              JOINT lIndex1
              {
                OFFSET 7.75947 0.938293 5.60832
                CHANNELS 3 Zrotation Xrotation Yrotation
                JOINT lIndex2
                {
                  OFFSET 2.54057 -0.884171 1.56538
                  CHANNELS 3 Zrotation Xrotation Yrotation
                  End Site
                  {
                    OFFSET 1.62519 -0.234802 1.16502
                  }
                }
              }
              JOINT lMid1
              {
                OFFSET 8.24714 1.18213 3.41376
                CHANNELS 3 Zrotation Xrotation Yrotation
                JOINT lMid2
                {
                  OFFSET 3.10165 -0.590103 1.0647
                  CHANNELS 3 Zrotation Xrotation Yrotation
                  End Site
                  {
                    OFFSET 2.48547 -0.328903 0.83742
                  }
                }
              }
              JOINT lRing1
              {
                OFFSET 8.82822 0.546677 1.51678
                CHANNELS 3 Zrotation Xrotation Yrotation
                JOINT lRing2
                {
                  OFFSET 2.60934 -0.819778 -0.0198488
                  CHANNELS 3 Zrotation Xrotation Yrotation
                  End Site
                  {
                    OFFSET 2.33842 -0.294052 0.168128
                  }
                }
              }
              JOINT lPinky1
              {
                OFFSET 8.27202 -0.0477905 -0.4584
                CHANNELS 3 Zrotation Xrotation Yrotation
                JOINT lPinky2
                {
                  OFFSET 1.82734 -0.647385 -0.700984
                  CHANNELS 3 Zrotation Xrotation Yrotation
                  End Site
                  {
                    OFFSET 1.69225 -0.51767 -0.607171
                  }
                }
              }
            }
          }
        }
      }
    }
  }
  JOINT rButtock
  {
    OFFSET -8.77824 4.35084 1.2192
    CHANNELS 3 Zrotation Xrotation Yrotation
    JOINT rThigh
    {
      OFFSET 0 -1.70687 -2.19456
      CHANNELS 3 Zrotation Xrotation Yrotation
      JOINT rShin
      {
        OFFSET 0 -36.8199 0.73152
        CHANNELS 3 Zrotation Xrotation Yrotation
        JOINT rFoot
        {
          OFFSET 0.73152 -45.1104 -5.12064
          CHANNELS 3 Zrotation Xrotation Yrotation
          End Site
          {
            OFFSET -1.1221 -3.69964 12.103
          }
        }
      }
    }
  }
  JOINT lButtock
  {
    OFFSET 8.77824 4.35084 1.2192
    CHANNELS 3 Zrotation Xrotation Yrotation
    JOINT lThigh
    {
      OFFSET 0 -1.70687 -2.19456
      CHANNELS 3 Zrotation Xrotation Yrotation
      JOINT lShin
      {
        OFFSET 0 -36.8199 0.73152
        CHANNELS 3 Zrotation Xrotation Yrotation
        JOINT lFoot
        {
          OFFSET -0.73152 -45.1104 -5.12064
          CHANNELS 3 Zrotation Xrotation Yrotation
          End Site
          {
            OFFSET 1.1221 -3.69964 12.103
          }
        }
      }
    }
  }
}
MOTION
Frames:	7
Frame Time:	0.03333
18.937 67.2158 45.2386 33.782683 83.747036 36.868895 -12.743272 9.571416 -69.075923 11.574502 -1.260938 71.724226 -11.38853 20.909078 -36.557367 29.502997 -14.340691 9.871268 -10.297439 0.559948 -6.208382 10.6551 0.633236 6.782715 -159.69842 -46.737819 169.924989 67.023718 3.899385 -5.766391 -174.519462 -82.258421 55.850277 155.570469 -37.056678 134.534558 77.250076 -51.404202 31.406618 -144.388034 -51.778753 145.254443 -152.704439 -4.242119 116.691192 -9.598982 26.724781 -13.532747 -178.847641 -47.484788 142.251005 -10.032927 45.448418 0.771148 -140.494538 21.640403 162.464026 -146.012127 3.501102 167.968761 7.358154 17.22148 9.929983 2.664494 60.5057 21.020318 81.229528 68.28063 -82.982703 -69.24259 7.668283 -52.498248 -4.288118 -15.143794 -104.266631 10.97955 -31.232626 6.141308 -174.003664 -22.783712 -97.286278 124.158609 34.432403 -69.220573 14.411116 21.651474 -14.163409 19.322186 58.24495 -7.916335 87.490658 69.945413 -80.586084 -173.880332 -48.184748 -154.593966 78.467957 72.9307 -86.166434 -9.15051 18.81534 -7.653163 136.635951 12.213309 138.689871 155.093262 73.205987 143.027025 -18.335956 1.081169 -9.020095 -27.583757 -63.719768 78.905324 85.511427 -23.24437 146.346167 -90.156566 78.813465 -173.943895 77.915562 37.966075 55.999163 -62.987231 40.552131 71.662469 32.534513 -24.512078 -104.898925 33.050548 -8.835434 12.94789
18.535 67.2116 45.8443 32.594197 83.463283 36.178709 -13.042385 9.614238 -69.631973 11.608222 -1.07116 72.477291 7.729791 31.144993 121.805527 -33.013463 24.025213 -147.757391 -10.645448 0.612675 -6.568934 12.376369 0.62015 5.714877 -143.342876 39.727029 148.048025 108.355567 42.592829 -104.730609 115.801472 -1.566423 -3.707985 -175.460282 41.170081 144.461088 -166.475345 -1.09375 91.462062 123.656065 -68.350386 98.608823 89.098529 -75.816638 46.622866 89.484472 -70.36353 20.516417 71.894902 -78.973476 47.00819 11.936781 -13.594523 -11.894333 -7.809009 22.284558 18.889048 -154.187711 4.110101 -172.059185 2.207478 -4.251097 2.929136 -11.22069 -26.470745 -1.573411 -1.791206 -26.023833 4.323193 -67.211911 12.246144 53.476765 2.768019 35.94735 -106.973862 9.754921 -36.485711 7.284982 -79.644064 -58.684859 -32.376994 8.030758 -6.162865 19.583007 34.987895 36.602903 -30.424962 153.503391 -26.980808 -125.966626 160.892389 -28.030043 -156.208813 -15.338006 23.966547 8.790668 74.044329 73.428199 -81.414848 157.065141 -21.077481 -169.597103 115.861028 -28.88365 120.651018 134.176969 2.570539 152.520887 -115.273814 63.268602 -47.413826 129.125169 -5.746198 76.547538 75.069585 29.666168 -121.943896 -109.831068 -52.268562 1.592271 -6.551947 -3.142128 -11.644181 15.597666 11.086858 77.39655 46.084587 22.359505 124.714681 -74.017047 3.994162 -165.232041
18.439 67.5998 46.3301 35.501447 83.167029 38.756535 -12.429766 7.966956 -108.843373 7.768126 5.219395 112.02955 -7.235195 17.357973 -12.254179 15.902017 -23.860437 -16.7378 -12.520258 0.996189 -9.06259 18.309972 0.543745 3.373028 -155.514141 -3.407233 163.106007 78.291869 36.780721 -47.537956 -144.174832 -73.912745 82.901408 149.69573 -44.138051 129.493283 0.293073 -4.094676 -1.789333 -129.850259 -37.487131 112.263351 -22.799616 20.264164 9.224994 -66.052656 35.103045 48.33689 -42.11611 49.493247 31.710908 -83.215253 51.756769 77.536858 -76.805468 63.187553 92.965068 20.581697 20.576365 -6.184113 -16.963827 -41.500834 -19.104797 -146.785019 48.387345 -167.646277 -4.108135 -70.254745 12.892546 -107.202293 31.453214 112.330738 8.389757 5.44673 -106.786776 8.851286 -45.981417 9.561279 81.765157 44.817637 -42.656013 -21.483863 -37.664318 -31.638558 4.335811 13.010951 -7.09884 160.34397 -32.569865 -131.324717 160.616655 -22.400169 -155.251594 -18.766621 -24.985575 16.051466 81.85053 -69.855915 90.56706 -15.541706 -0.47576 11.353746 -5.356335 -7.568589 4.522073 99.658393 -55.665384 83.28558 173.796139 75.862088 -0.0 155.767327 6.703705 180.0 -22.94344 -74.382353 -168.881799 -120.849977 11.69479 34.286622 3.540039 -3.278612 -4.351897 7.720535 9.468942 -0.0 -1.062464 47.073963 133.965633 -99.192898 77.118803 -4.032066
18.5323 67.8737 46.8071 33.423246 82.527225 36.891126 -11.17518 8.502212 -96.30621 9.198079 2.622778 99.624503 5.888784 32.106341 137.019836 -28.349912 32.962863 -162.788261 -12.609021 1.313918 -11.850831 18.720868 -0.253718 -1.539091 -150.771468 22.562924 156.27177 10.635094 -3.247712 -49.748324 -179.366096 12.073844 -86.525946 -9.57293 43.34227 -0.584303 -95.230454 40.390964 53.006092 53.74954 -44.0686 37.21762 -166.262056 -28.436639 123.518504 -79.145748 70.760182 59.660622 71.080689 -79.36478 47.811431 9.932317 -26.253758 -16.363644 -0.57776 -27.302561 -1.094462 -161.35746 -7.148973 178.395319 8.188771 16.895783 12.208525 -158.274422 11.656357 -143.692313 -3.980398 -33.242954 4.999637 -112.295956 34.769855 79.651615 -96.468215 35.909292 -78.343228 57.398078 48.040871 -37.98635 -3.468239 -7.54014 6.259387 117.510413 -23.623984 -103.979239 164.599334 -45.346965 -119.133783 158.445689 -0.056267 -99.151593 14.887853 46.826257 -7.000323 70.510924 58.102686 -46.688611 85.506916 -69.766313 95.695644 151.07161 72.629275 -173.775117 -9.038528 -0.943087 4.556164 5.628928 37.351658 -12.336629 0.057817 -0.694065 4.761993 -56.554784 -54.037979 -180.0 -80.103327 -29.964 -155.097969 170.021808 64.674468 116.907546 86.460226 41.815593 54.797976 -70.006802 47.113415 -0.0 30.479104 19.733063 -72.119168 70.919444 27.210687 9.633603
18.607599999999998 67.8309 47.3277 31.582503 82.079003 35.609679 -10.362851 9.211111 -81.270448 10.259884 -0.314281 84.773867 0.445065 16.61668 31.9586 -15.2355 -23.007054 -68.756619 -13.632847 1.554609 -12.951002 15.475526 -0.720321 -5.297588 -156.158434 -3.616209 162.95829 -111.951862 -19.007203 -138.383813 91.653769 83.258937 142.70317 162.398744 -25.219807 138.894211 -1.519137 0.33638 -3.484683 -6.332745 7.741748 15.759028 -106.080125 39.951138 80.568055 -91.298999 47.451764 54.420528 -69.39554 60.211316 56.463162 -160.382704 3.702936 127.616129 -128.65903 -65.851988 -146.988625 11.357968 19.604728 1.657918 -84.410919 -56.466015 -86.073761 -143.308875 71.979231 -168.916846 -5.055364 -44.140807 7.061713 -22.482114 2.756189 61.785174 42.327892 77.946541 -150.621388 10.922288 -40.571709 9.812736 162.85898 4.95623 -94.105426 -6.175684 -72.227695 -1.896137 146.266495 -16.420151 -118.460964 173.277844 -28.491474 -96.17684 159.554478 -3.14438 -151.802131 156.654188 -1.018733 -157.643714 6.09649 13.851169 -2.437985 134.019206 58.673194 -149.170044 -19.369014 22.801254 -1.238197 15.785683 0.451144 2.25042 -6.0618 -1.753283 0.0 -46.522883 -57.154695 128.541659 30.406891 -74.110864 168.506202 -139.233396 -51.494359 -17.266164 -0.397826 -3.037274 -7.465772 10.591413 6.647217 -180.0 14.138537 -48.568723 33.717845 86.148881 35.32229 163.905384
18.540100000000002 67.6799 47.870000000000005 29.979871 81.49298 34.859427 -9.968669 8.472155 -97.069545 9.443954 2.265398 100.250064 -14.575011 25.154332 -71.789406 39.17871 3.102714 38.905569 -14.052878 1.658397 -13.394825 11.21514 -0.771801 -7.848566 -132.26604 55.318836 135.404225 165.10997 -3.957799 -142.314875 178.133901 -14.571789 48.695529 162.267921 -26.591767 138.204813 47.789886 -44.48279 9.033219 -12.390418 2.060058 -9.429753 -163.050242 -16.332426 120.152885 64.763857 -79.162302 24.604259 -113.145704 58.177278 98.72533 92.773113 -66.398543 71.317429 -3.746972 -0.209879 1.556499 8.511985 -0.111737 0.8239 -9.096334 -24.736485 -6.642742 6.80224 30.428221 13.326508 160.3715 -48.625748 -168.99317 51.664526 78.591469 7.188378 -127.400696 -4.025202 23.705306 52.321941 45.074493 -32.554335 -178.562082 -18.042638 -95.90373 127.355404 31.065524 -74.437777 108.734858 28.83473 -95.396506 53.691169 54.054449 -55.918432 165.701338 -66.476583 -161.170483 -81.548058 -80.553206 -37.306154 5.930744 13.713568 -2.954128 -13.473578 -26.08633 1.722834 22.109731 -36.239776 31.121417 56.014956 -67.818792 49.28706 -155.949074 76.90649 -24.617571 148.783943 7.595031 91.201389 77.148205 5.849484 -144.888397 -53.711086 -62.78975 41.315699 2.503493 -3.785246 -3.050115 8.828547 7.300843 -67.497595 -34.860506 12.828574 89.095088 -157.607578 -27.929032 -24.342633
18.3124 67.5313 48.408699999999996 29.110071 80.851881 34.963229 -12.38215 10.96578 1.877245 3.183595 -12.459689 2.017715 -0.266231 16.397273 28.147173 -14.166905 -24.962725 -64.732126 -13.761869 1.669221 -13.766654 7.544871 -0.630565 -9.541172 -156.551718 -3.171564 162.821501 56.333149 17.238534 -41.037125 -137.583713 73.841894 -124.055401 -4.532839 25.895279 -3.011923 -173.497217 -10.963996 94.526023 31.219127 -71.675413 19.589045 7.812148 -34.518874 -3.166782 8.532837 37.038605 5.703915 -39.345866 51.664075 28.118298 48.980856 -52.038957 26.514186 -5.4948 -0.726078 -0.670672 -144.314211 41.075996 158.987401 -145.652531 7.084796 -142.388702 25.891883 45.419459 -3.130806 128.48195 54.253941 -132.072941 106.523522 0.544574 -102.701381 171.033771 19.173616 78.344492 11.819086 -35.920767 8.660706 3.952971 2.719596 6.645306 26.74795 9.145491 -38.201131 -6.022611 -1.413451 -0.87817 170.131242 -24.805477 -130.165126 6.509038 26.848891 3.484211 166.387726 9.92528 -128.142431 150.645973 0.548239 178.2958 147.076192 -53.197397 167.565911 82.530136 -46.02295 84.985059 7.046641 -44.61995 9.3427 -153.170268 77.44177 -27.39252 150.049426 5.840072 -180.0 -29.014435 -79.359016 -125.83958 -156.533802 20.185791 87.861217 1.631105 -4.314003 -1.969502 7.300381 6.041222 129.403591 43.727358 -22.860413 106.99924 151.254059 5.574224 174.678963
